<svg width="65" height="65" viewBox="0 0 65 65" fill="none" xmlns="http://www.w3.org/2000/svg">
<circle cx="32.012" cy="32.9046" r="32.012" fill="#1C1C1C"/>
<path d="M21.474 33.9785C21.474 33.9785 28.408 41.2669 31.1093 44.1071C31.334 44.3435 31.6321 44.4641 31.9317 44.4678C32.2313 44.4716 32.531 44.3585 32.7635 44.1279C35.5383 41.3579 42.6635 34.2442 42.6635 34.2442C42.8929 34.0167 43.0093 33.7141 43.0134 33.4102C43.0175 33.1014 42.9061 32.7929 42.6799 32.5548C42.2305 32.0804 41.4908 32.0679 41.032 32.5278L33.1569 40.3937L33.3983 22.3513C33.4072 21.689 32.89 21.145 32.2439 21.1369C31.5979 21.1288 31.0663 21.6597 31.0575 22.322L30.816 40.3643L23.1525 32.302C22.7077 31.834 21.9695 31.8296 21.5075 32.291C21.2734 32.5248 21.1538 32.8321 21.1497 33.1393C21.1456 33.4432 21.2539 33.7454 21.474 33.9785Z" fill="#FB4220"/>
</svg>
