<svg width="160" height="49" viewBox="0 0 160 49" fill="none" xmlns="http://www.w3.org/2000/svg">
<path d="M26.512 33.032C26.512 33.752 26.416 34.432 26.224 35.072C26.048 35.712 25.744 36.272 25.312 36.752C24.896 37.232 24.352 37.616 23.68 37.904C23.008 38.176 22.192 38.312 21.232 38.312C20.224 38.312 19.384 38.184 18.712 37.928C18.04 37.672 17.472 37.36 17.008 36.992L18.136 34.64C18.536 34.896 18.976 35.144 19.456 35.384C19.952 35.624 20.456 35.744 20.968 35.744C21.736 35.744 22.352 35.544 22.816 35.144C23.296 34.728 23.536 33.968 23.536 32.864V25.592H18.568V23.144H26.512V33.032ZM39.328 32.336C39.328 33.232 39.2 34.048 38.944 34.784C38.688 35.504 38.328 36.128 37.864 36.656C37.4 37.184 36.84 37.592 36.184 37.88C35.544 38.168 34.824 38.312 34.024 38.312C33.224 38.312 32.496 38.168 31.84 37.88C31.2 37.592 30.64 37.184 30.16 36.656C29.696 36.128 29.336 35.504 29.08 34.784C28.824 34.048 28.696 33.232 28.696 32.336C28.696 31.456 28.824 30.656 29.08 29.936C29.352 29.2 29.72 28.576 30.184 28.064C30.664 27.536 31.232 27.136 31.888 26.864C32.544 26.576 33.256 26.432 34.024 26.432C34.808 26.432 35.52 26.576 36.16 26.864C36.816 27.136 37.376 27.536 37.84 28.064C38.32 28.576 38.688 29.2 38.944 29.936C39.2 30.656 39.328 31.456 39.328 32.336ZM31.696 32.36C31.696 33.368 31.872 34.184 32.224 34.808C32.592 35.432 33.176 35.744 33.976 35.744C34.744 35.744 35.32 35.432 35.704 34.808C36.104 34.184 36.304 33.368 36.304 32.36C36.304 31.352 36.12 30.544 35.752 29.936C35.4 29.312 34.824 29 34.024 29C33.256 29 32.672 29.312 32.272 29.936C31.888 30.544 31.696 31.352 31.696 32.36ZM41.512 27.08C42.04 26.936 42.688 26.8 43.456 26.672C44.24 26.544 45.088 26.48 46 26.48C46.896 26.48 47.64 26.608 48.232 26.864C48.824 27.104 49.288 27.456 49.624 27.92C49.976 28.368 50.224 28.912 50.368 29.552C50.512 30.176 50.584 30.872 50.584 31.64V38H47.632V32.024C47.632 30.968 47.512 30.208 47.272 29.744C47.032 29.28 46.544 29.048 45.808 29.048C45.584 29.048 45.36 29.056 45.136 29.072C44.928 29.088 44.704 29.112 44.464 29.144V38H41.512V27.08ZM52.744 32.456C52.744 31.464 52.896 30.592 53.2 29.84C53.504 29.088 53.904 28.464 54.4 27.968C54.896 27.456 55.464 27.072 56.104 26.816C56.744 26.56 57.4 26.432 58.072 26.432C59.736 26.432 61 26.928 61.864 27.92C62.728 28.896 63.16 30.328 63.16 32.216C63.16 32.408 63.152 32.608 63.136 32.816C63.136 33.024 63.128 33.192 63.112 33.32H55.792C55.792 34.056 56.096 34.64 56.704 35.072C57.312 35.488 58.096 35.696 59.056 35.696C59.648 35.696 60.208 35.632 60.736 35.504C61.28 35.376 61.736 35.248 62.104 35.12L62.512 37.64C62 37.816 61.456 37.96 60.88 38.072C60.304 38.2 59.656 38.264 58.936 38.264C57.976 38.264 57.112 38.144 56.344 37.904C55.592 37.648 54.944 37.28 54.4 36.8C53.872 36.304 53.464 35.696 53.176 34.976C52.888 34.256 52.744 33.416 52.744 32.456ZM60.304 31.28C60.304 30.976 60.264 30.688 60.184 30.416C60.104 30.128 59.976 29.872 59.8 29.648C59.624 29.424 59.4 29.248 59.128 29.12C58.856 28.976 58.52 28.904 58.12 28.904C57.736 28.904 57.4 28.968 57.112 29.096C56.84 29.224 56.608 29.4 56.416 29.624C56.24 29.848 56.096 30.104 55.984 30.392C55.888 30.68 55.824 30.976 55.792 31.28H60.304ZM69.472 35.768C70.192 35.768 70.744 35.72 71.128 35.624C71.512 35.512 71.704 35.296 71.704 34.976C71.704 34.768 71.64 34.592 71.512 34.448C71.4 34.304 71.232 34.184 71.008 34.088C70.8 33.976 70.552 33.872 70.264 33.776C69.992 33.68 69.704 33.584 69.4 33.488C68.968 33.36 68.528 33.216 68.08 33.056C67.632 32.88 67.224 32.664 66.856 32.408C66.488 32.152 66.184 31.832 65.944 31.448C65.704 31.048 65.584 30.552 65.584 29.96C65.584 29.48 65.672 29.032 65.848 28.616C66.04 28.184 66.328 27.808 66.712 27.488C67.112 27.152 67.616 26.896 68.224 26.72C68.832 26.528 69.56 26.432 70.408 26.432C71.144 26.432 71.824 26.488 72.448 26.6C73.088 26.712 73.64 26.872 74.104 27.08L73.648 29.576C73.376 29.496 72.952 29.368 72.376 29.192C71.8 29 71.152 28.904 70.432 28.904C69.68 28.904 69.168 29 68.896 29.192C68.64 29.368 68.512 29.56 68.512 29.768C68.512 29.944 68.568 30.104 68.68 30.248C68.808 30.376 68.968 30.496 69.16 30.608C69.368 30.72 69.6 30.832 69.856 30.944C70.128 31.04 70.416 31.136 70.72 31.232C71.152 31.376 71.6 31.536 72.064 31.712C72.528 31.888 72.944 32.112 73.312 32.384C73.696 32.64 74.008 32.976 74.248 33.392C74.488 33.792 74.608 34.288 74.608 34.88C74.608 35.344 74.52 35.784 74.344 36.2C74.168 36.616 73.872 36.976 73.456 37.28C73.056 37.584 72.528 37.824 71.872 38C71.216 38.176 70.408 38.264 69.448 38.264C68.472 38.264 67.64 38.152 66.952 37.928C66.264 37.704 65.712 37.504 65.296 37.328L65.752 34.856C66.312 35.08 66.904 35.288 67.528 35.48C68.168 35.672 68.816 35.768 69.472 35.768ZM99.04 36.32V38H90.184V23.144H92.152V36.32H99.04ZM105.016 25.136C104.6 25.136 104.24 24.992 103.936 24.704C103.632 24.416 103.48 24.024 103.48 23.528C103.48 23.032 103.632 22.64 103.936 22.352C104.24 22.064 104.6 21.92 105.016 21.92C105.448 21.92 105.808 22.064 106.096 22.352C106.4 22.64 106.552 23.032 106.552 23.528C106.552 24.024 106.4 24.416 106.096 24.704C105.808 24.992 105.448 25.136 105.016 25.136ZM104.512 28.52H101.296V26.864H106.48V33.704C106.48 34.808 106.632 35.552 106.936 35.936C107.24 36.304 107.696 36.488 108.304 36.488C108.768 36.488 109.192 36.432 109.576 36.32C109.976 36.208 110.288 36.088 110.512 35.96L110.8 37.64C110.704 37.688 110.568 37.752 110.392 37.832C110.216 37.896 110.008 37.96 109.768 38.024C109.544 38.088 109.288 38.144 109 38.192C108.728 38.24 108.44 38.264 108.136 38.264C107.432 38.264 106.848 38.168 106.384 37.976C105.92 37.784 105.544 37.496 105.256 37.112C104.984 36.728 104.792 36.256 104.68 35.696C104.568 35.12 104.512 34.456 104.512 33.704V28.52ZM112.984 27.176C113.944 26.808 114.848 26.624 115.696 26.624C116.16 26.624 116.592 26.696 116.992 26.84C117.408 26.968 117.76 27.176 118.048 27.464C118.736 26.904 119.472 26.624 120.256 26.624C120.64 26.624 121 26.696 121.336 26.84C121.688 26.984 121.992 27.2 122.248 27.488C122.52 27.776 122.736 28.136 122.896 28.568C123.056 29 123.136 29.504 123.136 30.08V38H121.336V30.032C121.336 29.456 121.208 29.016 120.952 28.712C120.696 28.408 120.376 28.256 119.992 28.256C119.8 28.256 119.6 28.304 119.392 28.4C119.184 28.496 118.992 28.648 118.816 28.856C118.912 29.224 118.96 29.632 118.96 30.08V33.704H117.16V30.056C117.16 29.496 117.072 29.056 116.896 28.736C116.72 28.416 116.376 28.256 115.864 28.256C115.544 28.256 115.184 28.328 114.784 28.472V38H112.984V27.176ZM130.12 36.584C130.616 36.584 131.056 36.568 131.44 36.536C131.84 36.504 132.168 36.464 132.424 36.416V33.104C132.168 33.024 131.856 32.96 131.488 32.912C131.136 32.864 130.76 32.84 130.36 32.84C129.992 32.84 129.632 32.872 129.28 32.936C128.928 32.984 128.616 33.08 128.344 33.224C128.072 33.368 127.848 33.56 127.672 33.8C127.496 34.024 127.408 34.312 127.408 34.664C127.408 35.384 127.648 35.888 128.128 36.176C128.624 36.448 129.288 36.584 130.12 36.584ZM129.928 26.6C130.76 26.6 131.456 26.704 132.016 26.912C132.592 27.12 133.056 27.408 133.408 27.776C133.76 28.144 134.008 28.592 134.152 29.12C134.296 29.648 134.368 30.224 134.368 30.848V37.808C133.904 37.888 133.288 37.984 132.52 38.096C131.768 38.208 130.992 38.264 130.192 38.264C129.584 38.264 128.992 38.208 128.416 38.096C127.84 38 127.328 37.824 126.88 37.568C126.432 37.296 126.072 36.928 125.8 36.464C125.528 36 125.392 35.408 125.392 34.688C125.392 34.048 125.528 33.512 125.8 33.08C126.088 32.632 126.448 32.272 126.88 32C127.328 31.728 127.832 31.536 128.392 31.424C128.968 31.296 129.544 31.232 130.12 31.232C130.904 31.232 131.672 31.32 132.424 31.496V30.944C132.424 30.608 132.384 30.288 132.304 29.984C132.24 29.664 132.104 29.376 131.896 29.12C131.704 28.864 131.432 28.664 131.08 28.52C130.744 28.36 130.304 28.28 129.76 28.28C129.072 28.28 128.472 28.328 127.96 28.424C127.448 28.52 127.056 28.616 126.784 28.712L126.544 27.08C126.816 26.952 127.264 26.84 127.888 26.744C128.528 26.648 129.208 26.6 129.928 26.6Z" fill="white"/>
<path d="M159.245 29.6542C159.251 30.214 159.056 30.7771 158.661 31.2009L156.09 33.9495V39.197C156.09 42.2461 154.203 46.7881 149 46.7881V42.5086C151.946 42.5086 152.093 39.7505 152.093 39.197V33.0639C152.093 32.4977 152.303 31.9537 152.678 31.5552L154.424 29.6827L154.401 29.6574L152.672 27.7849C152.3 27.3832 152.093 26.8423 152.093 26.2824V20.1146C152.093 16.9611 149.517 16.8029 149 16.8029V12.5234C151.851 12.5234 156.09 14.5477 156.09 20.1146V25.4L158.663 28.1834C159.042 28.5914 159.234 29.126 159.242 29.6574L159.245 29.6542Z" fill="#FB4220"/>
<path d="M159.245 29.6542C159.251 30.2141 159.056 30.7771 158.66 31.2009L156.09 33.9496V39.197C156.09 42.2461 154.202 46.7882 149 46.7882V42.5087C151.945 42.5087 152.093 39.7505 152.093 39.197V33.0639C152.093 32.4978 152.303 31.9537 152.678 31.5552L154.424 29.6827L154.4 29.6574H159.242L159.245 29.6542Z" fill="#FB4220"/>
<path d="M10.242 42.6638V46.9433C5.03976 46.9433 3.15207 42.4013 3.15207 39.3521V34.1047L0.58492 31.3561C0.194973 30.9386 0 30.3882 0 29.8347C0 29.2938 0.197927 28.7529 0.579011 28.3386L3.15207 25.5551V20.2698C3.15207 14.7029 7.39126 12.6786 10.242 12.6786V14.8168L10.2597 16.955C10.2597 16.955 9.33508 16.9803 8.50497 17.4579C7.923 17.7932 7.14902 18.4479 7.14902 20.2666V26.4345C7.14902 26.9975 6.93927 27.5383 6.57001 27.9369L4.8182 29.8347L6.5641 31.7072C6.93927 32.1089 7.14902 32.6529 7.14902 33.2159V39.349C7.14902 39.349 7.15493 39.5925 7.21696 39.9468C7.27605 40.301 7.39421 40.766 7.61873 41.2088C7.92891 41.8319 8.54337 42.6606 10.242 42.6606V42.6638Z" fill="#FB4220"/>
<path d="M10.2597 16.955C10.2597 16.955 9.33508 16.9803 8.50497 17.4579C7.923 17.7932 7.14902 18.4479 7.14902 20.2666V26.4345C7.14902 26.9975 6.93927 27.5383 6.57001 27.9369L4.8182 29.8347H0C0 29.2938 0.197927 28.7529 0.579011 28.3386L3.15207 25.5551V20.2698C3.15207 14.7029 7.39126 12.6786 10.242 12.6786V14.8168L10.2597 16.955Z" fill="#FB4220"/>
<path d="M85.3833 46.1011C85.9008 44.8643 85.3105 43.445 84.0648 42.9312C82.8191 42.4173 81.3898 43.0035 80.8723 44.2403C80.3548 45.4772 80.9451 46.8964 82.1908 47.4103C83.4364 47.9241 84.8658 47.338 85.3833 46.1011Z" fill="white"/>
<path d="M78.8847 45.1718C78.8847 43.8314 77.7923 42.7467 76.4424 42.7467C75.0924 42.7467 74 43.8314 74 45.1718C74 46.5123 75.0924 47.597 76.4424 47.597C77.7923 47.597 78.8847 46.5123 78.8847 45.1718Z" fill="#FB4220"/>
<path d="M92.0611 46.1034C92.5797 44.867 91.9906 43.4473 90.7454 42.9324C89.5002 42.4174 88.0704 43.0023 87.5518 44.2387C87.0332 45.4752 87.6222 46.8949 88.8674 47.4098C90.1127 47.9248 91.5425 47.3399 92.0611 46.1034Z" fill="#FB4220"/>
<path d="M6 0.9086H2V4.7802H6V0.9086Z" fill="white"/>
<path d="M14 8.65179H10V12.5234H14V8.65179Z" fill="white"/>
<path d="M149 8.65179H145V12.5234H149V8.65179Z" fill="white"/>
<path d="M10 4.78021H6V8.65181H10V4.78021Z" fill="#FB4220"/>
</svg>
